
<svg width="100" height="100" viewBox="0 0 100 100" fill="none" xmlns="http://www.w3.org/2000/svg">
  <circle cx="50" cy="50" r="45" fill="#4A6741" />
  <circle cx="50" cy="50" r="35" fill="#8EA382" />
  <path d="M32 40C32 36.6863 34.6863 34 38 34H62C65.3137 34 68 36.6863 68 40V60C68 63.3137 65.3137 66 62 66H38C34.6863 66 32 63.3137 32 60V40Z" fill="#F1C40F" />
  <path d="M38 55C38 52.7909 39.7909 51 42 51H58C60.2091 51 62 52.7909 62 55V60C62 63.3137 59.3137 66 56 66H44C40.6863 66 38 63.3137 38 60V55Z" fill="#E67E22" />
  <path d="M45 34C45 31.7909 46.7909 30 49 30H51C53.2091 30 55 31.7909 55 34V38C55 38.5523 54.5523 39 54 39H46C45.4477 39 45 38.5523 45 38V34Z" fill="#4A6741" />
</svg>
